<svg width="27" height="16" viewBox="0 0 27 16" fill="none" xmlns="http://www.w3.org/2000/svg">
<path d="M6.29618 6.04097V7.82773H12.7909V0H5.105C4.16908 0 3.40332 0.765756 3.40332 1.70168V3.80042H4.02727C5.30353 3.80042 6.29618 4.79307 6.29618 6.04097Z" fill="#FC4301"/>
<path d="M20.6466 6.04097C20.6466 4.79307 21.6676 3.80042 22.8871 3.80042H23.5111V1.70168C23.5111 0.765756 22.7453 0 21.8094 0H14.1519V7.82773H20.6466V6.04097Z" fill="#FC4301"/>
<path d="M24.7027 5.13341H22.8876C22.3771 5.13341 21.98 5.53047 21.98 6.04097V8.90547C21.98 9.07563 21.8666 9.18908 21.6964 9.18908H5.24685C5.07668 9.18908 4.96324 9.07563 4.96324 8.90547V6.04097C4.96324 5.53047 4.56618 5.13341 4.05567 5.13341H2.24055C1.02101 5.13341 0 6.12605 0 7.37395C0 8.59349 0.992647 9.6145 2.24055 9.6145V11.8834C2.24055 12.791 2.94958 13.5284 3.82878 13.5567V14.4643C3.82878 14.833 4.14076 15.145 4.50945 15.145H6.06933C6.43802 15.145 6.75 14.833 6.75 14.4643V13.5567H20.25V14.4643C20.25 14.833 20.562 15.145 20.9307 15.145H22.4905C22.8592 15.145 23.1712 14.833 23.1712 14.4643V13.5284C24.0504 13.4716 24.7595 12.7626 24.7595 11.855V9.58614C25.979 9.58614 27 8.59349 27 7.34559C26.9433 6.12605 25.9506 5.13341 24.7027 5.13341Z" fill="#FC4301"/>
</svg>
