<svg width="17" height="22" viewBox="0 0 17 22" fill="none" xmlns="http://www.w3.org/2000/svg">
<path d="M8.33317 17.2619C10.6306 17.2619 12.4998 15.3926 12.4998 13.0952C12.4998 10.7979 10.6306 8.92857 8.33317 8.92857C6.03579 8.92857 4.1665 10.7979 4.1665 13.0952C4.1665 15.3926 6.03579 17.2619 8.33317 17.2619Z" fill="#FC4301"/>
<path d="M0 21.4286H16.6667V5.95238H0V21.4286ZM8.33333 7.73809C11.2874 7.73809 13.6905 10.1414 13.6905 13.0952C13.6905 16.049 11.2874 18.4524 8.33333 18.4524C5.37929 18.4524 2.97619 16.049 2.97619 13.0952C2.97619 10.1414 5.37929 7.73809 8.33333 7.73809Z" fill="#FC4301"/>
<path d="M16.6667 0H0V4.7619H16.6667V0ZM14.881 2.97619H11.3095V1.78571H14.881V2.97619Z" fill="#FC4301"/>
</svg>
