<svg width="17" height="19" viewBox="0 0 17 19" fill="none" xmlns="http://www.w3.org/2000/svg">
<path fill-rule="evenodd" clip-rule="evenodd" d="M2.68422 0H14.2748C15.4716 0 16.4795 0.958991 16.4795 2.09779V16.8423C16.4795 18.041 15.4716 19 14.2748 19H2.68422C1.48737 19 0.479492 18.041 0.479492 16.8423V2.09779C0.479492 0.958991 1.48737 0 2.68422 0ZM3.94406 4.97476C3.37713 4.97476 3.37713 4.13565 3.94406 4.13565H13.0149C13.5819 4.13565 13.5819 4.97476 13.0149 4.97476H3.94406ZM3.94406 6.95268C3.37713 6.95268 3.37713 6.11356 3.94406 6.11356H13.0149C13.5819 6.11356 13.5819 6.95268 13.0149 6.95268H3.94406ZM3.94406 8.9306C3.37713 8.9306 3.37713 8.09148 3.94406 8.09148H13.0149C13.5819 8.09148 13.5819 8.9306 13.0149 8.9306H3.94406ZM3.94406 10.9085C3.37713 10.9085 3.37713 10.0694 3.94406 10.0694H13.0149C13.5819 10.0694 13.5819 10.9085 13.0149 10.9085H3.94406ZM3.94406 12.8864C3.37713 12.8864 3.37713 12.0473 3.94406 12.0473H13.0149C13.5819 12.0473 13.5819 12.8864 13.0149 12.8864H3.94406ZM3.94406 14.8644C3.37713 14.8644 3.37713 14.0252 3.94406 14.0252H13.0149C13.5819 14.0252 13.5819 14.8644 13.0149 14.8644H3.94406Z" fill="#FC4301"/>
</svg>
