<svg width="24" height="23" viewBox="0 0 24 23" fill="none" xmlns="http://www.w3.org/2000/svg">
<path d="M23.4793 17.704V16.7981H23.3501V15.6467H22.4387V16.7981H19.7047V15.6467H18.7933V16.7981H16.0591V15.6467H15.1477V16.7981H12.8686L12.7508 14.8785C13.5398 14.6993 14.2511 14.2485 14.7453 13.6013C15.125 13.7402 15.5218 13.8106 15.93 13.8106C17.8368 13.8106 19.3887 12.268 19.3887 10.3721C19.3887 9.61837 19.1457 8.90054 18.6961 8.30829C19.3054 7.6728 19.6471 6.83284 19.6471 5.94228C19.6471 4.04639 18.0952 2.50378 16.188 2.50378C15.9175 2.50378 15.6509 2.53483 15.3909 2.59578C15.0089 1.10262 13.6321 0 12.04 0C10.4187 0 9.04361 1.11826 8.67895 2.63764C8.37052 2.54863 8.05237 2.50378 7.72751 2.50378C5.82024 2.50378 4.26836 4.04639 4.26836 5.94228C4.26836 6.90161 4.67444 7.81241 5.37344 8.45894C4.99166 9.02313 4.78504 9.6876 4.78504 10.3721C4.78504 12.268 6.33691 13.8106 8.24419 13.8106C8.59635 13.8106 8.9418 13.7579 9.27476 13.654C9.75626 14.2635 10.4208 14.685 11.1654 14.8658L11.0469 16.7983H8.7678V15.6469H7.85639V16.7983H5.12262V15.6469H4.21121V16.7983H1.47698V15.6469H0.565566V16.7983H0.479492V17.7043H0.565566V20.9201H0.479492V21.8261H0.565566V22.7758H1.47698V21.8261H4.21121V22.7758H5.12262V21.8261H7.85685V22.7758H8.76827V21.8261H10.7389L10.6667 23H13.249L13.177 21.8258H15.1477V22.7755H16.0591V21.8258H18.7933V22.7755H19.7047V21.8258H22.439V22.7755H23.3504V21.8258H23.4795V20.9199H23.3504V17.704H23.4793ZM1.47698 20.9199V17.704H4.21121V20.9199H1.47698ZM5.12262 20.9199V17.704H7.85685V20.9199H5.12262ZM8.76803 20.9199V17.704H10.9916L10.7945 20.9199H8.76803ZM13.1215 20.9199L12.9243 17.704H15.1479V20.9199H13.1215ZM16.0591 20.9199V17.704H18.7933V20.9199H16.0591ZM22.439 20.9199H19.7047V17.704H22.439V20.9199Z" fill="#FC4301"/>
</svg>
