<svg width="17" height="22" viewBox="0 0 17 22" fill="none" xmlns="http://www.w3.org/2000/svg">
<path d="M12.9552 4.86551H12.1345V0H8.91033V4.92413H8.08965V0H4.86551V3.51724H4.04482V0H0V7.0931H17V0H12.9552V4.86551Z" fill="#FC4301"/>
<path d="M1.1645e-05 9.48833C-0.00112561 9.75854 0.0810611 10.0225 0.235377 10.2444C0.389692 10.4662 0.608634 10.635 0.86238 10.7279L6.98823 12.9403C7.1022 12.981 7.19751 13.0616 7.25644 13.1673C7.31537 13.273 7.33391 13.3965 7.3086 13.5148C7.10425 14.7512 6.66307 19.0304 6.66307 19.6172C6.66031 20.1046 6.85126 20.573 7.19392 20.9196C7.53657 21.2662 8.00286 21.4624 8.49021 21.4652C8.97756 21.4679 9.44605 21.277 9.79261 20.9343C10.1392 20.5917 10.3354 20.1254 10.3382 19.638C10.3382 19.6311 10.3382 19.6241 10.3382 19.6172C10.3382 19.0427 9.91493 14.9084 9.70331 13.5707C9.68543 13.4559 9.70768 13.3384 9.76629 13.238C9.82491 13.1377 9.91632 13.0606 10.0251 13.0197L16.151 10.732C16.4013 10.637 16.6166 10.468 16.7683 10.2474C16.92 10.0268 17.0008 9.76523 17 9.49753V7.91378H1.1645e-05V9.48833ZM8.5 18.4878C8.70909 18.4878 8.91348 18.5498 9.08733 18.6659C9.26118 18.7821 9.39668 18.9472 9.4767 19.1404C9.55671 19.3335 9.57764 19.5461 9.53685 19.7512C9.49606 19.9562 9.39538 20.1446 9.24753 20.2925C9.09968 20.4403 8.91131 20.541 8.70624 20.5818C8.50117 20.6226 8.28862 20.6016 8.09544 20.5216C7.90227 20.4416 7.73717 20.3061 7.621 20.1323C7.50484 19.9584 7.44284 19.754 7.44284 19.5449C7.44315 19.2647 7.55463 18.9959 7.75282 18.7977C7.95101 18.5996 8.21972 18.4881 8.5 18.4878Z" fill="#FC4301"/>
</svg>
