<svg width="23" height="22" viewBox="0 0 23 22" fill="none" xmlns="http://www.w3.org/2000/svg">
<path d="M21.8935 9.25101L20.2067 8.61178C20.0114 7.86602 19.7095 7.15577 19.3366 6.49879L20.0824 4.84746C20.2422 4.51009 20.1712 4.11945 19.9048 3.85311L18.6086 2.5569C18.3423 2.29056 17.9516 2.21953 17.6143 2.37934L15.9629 3.1251C15.306 2.75222 14.5957 2.45036 13.85 2.25504L13.2107 0.5682C13.0864 0.213075 12.7491 0 12.3762 0H10.565C10.1922 0 9.87255 0.230831 9.7305 0.5682L9.09128 2.25504C8.34551 2.45036 7.63526 2.75222 6.97828 3.1251L5.32695 2.37934C4.98958 2.21953 4.59894 2.29056 4.3326 2.5569L3.03639 3.85311C2.77005 4.11945 2.69902 4.51009 2.85883 4.84746L3.60459 6.49879C3.23171 7.15577 2.92986 7.86602 2.73454 8.61178L1.04769 9.25101C0.692567 9.3753 0.479492 9.71267 0.479492 10.0856V11.9144C0.479492 12.2873 0.710324 12.6069 1.04769 12.749L2.73454 13.3882C2.92986 14.134 3.23171 14.8442 3.60459 15.5012L2.85883 17.1525C2.69902 17.4899 2.77005 17.8806 3.03639 18.1469L4.3326 19.4431C4.59894 19.7094 4.98958 19.7805 5.32695 19.6207L6.97828 18.8749C7.63526 19.2478 8.34551 19.5496 9.09128 19.745L9.7305 21.4318C9.8548 21.7869 10.1922 22 10.565 22H12.3939C12.7668 22 13.1042 21.7692 13.2285 21.4318L13.8677 19.745C14.6135 19.5496 15.3237 19.2478 15.9807 18.8749L17.632 19.6207C17.9694 19.7805 18.36 19.7094 18.6264 19.4431L19.9226 18.1469C20.1889 17.8806 20.26 17.4899 20.1002 17.1525L19.3544 15.5012C19.7273 14.8442 20.0291 14.134 20.2244 13.3882L21.9113 12.749C22.2664 12.6247 22.4795 12.2873 22.4795 11.9144V10.0856C22.4795 9.71267 22.2487 9.3753 21.8935 9.25101ZM15.8387 15.2349L12.9266 13.7789V12.82C13.0509 12.678 13.1752 12.4826 13.2995 12.2873C13.3883 12.1275 13.4771 11.9322 13.5659 11.7191C13.85 11.7546 14.1696 11.3995 14.2761 10.9201C14.4004 10.4407 14.2583 9.99677 13.9742 9.9435C14.063 8.71832 13.6724 7.42211 12.4472 6.9427C12.1454 6.8184 11.808 6.76513 11.4706 6.76513C11.1332 6.76513 10.8136 6.8184 10.494 6.9427C9.26884 7.42211 8.86045 8.71832 8.96698 9.9435C8.68288 9.99677 8.54083 10.4407 8.66513 10.9201C8.77166 11.3995 9.09128 11.7369 9.37538 11.7191C9.46416 11.9322 9.55294 12.1275 9.64172 12.2873C9.76601 12.5004 9.89031 12.678 10.0146 12.82V13.7789L7.10258 15.2526C6.07271 14.1872 5.41573 12.749 5.38022 11.1509C5.29144 7.77724 7.95488 4.98951 11.3286 4.90073C14.6667 4.81194 17.49 7.45763 17.561 10.8313C17.6143 12.5359 16.9395 14.0985 15.8387 15.2349Z" fill="#FC4301"/>
</svg>
