<svg width="24" height="19" viewBox="0 0 24 19" fill="none" xmlns="http://www.w3.org/2000/svg">
<path d="M22.6775 3.04972H18.0511C17.8023 1.33171 16.3331 0 14.5449 0V7.11602C16.3331 7.11602 17.802 5.78532 18.0511 4.0663H22.6775C22.9571 4.0663 23.1858 3.83858 23.1858 3.55801C23.1858 3.27845 22.9571 3.04972 22.6775 3.04972Z" fill="#FC4301"/>
<path d="M13.7238 0H3.55801C1.59602 0 0 1.59602 0 3.55801C0 5.1093 0.989127 6.44407 2.42148 6.92287L0.304972 13.7939C-0.271425 15.6685 0.783779 17.6642 2.65834 18.2414C2.99889 18.3471 3.35165 18.4 3.70541 18.4C5.27704 18.4 6.64331 17.3905 7.10585 15.887L8.55956 11.1661C8.587 11.1701 8.6114 11.1821 8.63986 11.1821H10.1495C10.366 11.1821 10.5592 11.0438 10.6303 10.8395L11.9089 7.11602H13.7227L13.7238 0ZM5.59116 5.08287H4.57458C4.29401 5.08287 4.0663 4.85516 4.0663 4.57458C4.0663 4.29503 4.29401 4.0663 4.57458 4.0663H5.59116C5.87173 4.0663 6.09945 4.29503 6.09945 4.57458C6.09945 4.85618 5.87173 5.08287 5.59116 5.08287ZM5.59116 3.04972H4.57458C4.29401 3.04972 4.0663 2.82201 4.0663 2.54144C4.0663 2.26188 4.29401 2.03315 4.57458 2.03315H5.59116C5.87173 2.03315 6.09945 2.26188 6.09945 2.54144C6.09945 2.82303 5.87173 3.04972 5.59116 3.04972ZM9.78758 10.1657H8.86859L9.60053 7.78899C9.72455 7.38643 10.0905 7.11602 10.5114 7.11602H10.8357L9.78758 10.1657Z" fill="#FC4301"/>
</svg>
